<?xml version="1.0" encoding="utf-8"?>
<!-- Generator: Adobe Illustrator 19.0.0, SVG Export Plug-In . SVG Version: 6.00 Build 0)  -->
<svg version="1.1" id="Layer_1" xmlns="http://www.w3.org/2000/svg" xmlns:xlink="http://www.w3.org/1999/xlink" x="0px" y="0px"
	 viewBox="0 0 500 500" style="enable-background:new 0 0 500 500;" xml:space="preserve">
<style type="text/css">
	.st0{fill:#5D0425;}
	.st1{fill:url(#XMLID_77_);}
	.st2{fill:url(#XMLID_78_);}
	.st3{fill:url(#XMLID_79_);}
	.st4{fill:url(#XMLID_81_);}
	.st5{fill:url(#XMLID_82_);}
	.st6{fill:url(#XMLID_83_);}
	.st7{fill:#C96F5A;}
</style>
<g id="XMLID_1_">
	<g id="XMLID_2_">
		<path id="XMLID_49_" class="st0" d="M299.8,300.6c-7.3-7.7-16.1-13.9-25.9-18.1c-9.4-4.1-19.8-6.3-30.6-6.2
			c-10.9,0-21.2,2.3-30.6,6.5c-9.8,4.3-18.5,10.6-25.8,18.3l-1.9-1.9c7.5-8,16.6-14.5,26.7-18.9c9.7-4.3,20.4-6.7,31.6-6.7
			c11.2,0,21.9,2.3,31.7,6.5c10.1,4.4,19.2,10.8,26.8,18.7L299.8,300.6L299.8,300.6z"/>
		<path id="XMLID_48_" class="st0" d="M276.5,322.8c-4.3-4.8-9.5-8.6-15.3-11.2c-5.6-2.5-11.8-3.9-18.4-3.9c-6.5,0-12.7,1.5-18.3,4
			c-5.8,2.7-11,6.6-15.2,11.4l-2-1.9c4.5-5.1,10-9.2,16.1-12c5.9-2.7,12.5-4.3,19.4-4.3c6.9,0,13.5,1.4,19.4,4.1
			c6.2,2.8,11.7,6.9,16.2,11.9L276.5,322.8L276.5,322.8z"/>
		<path id="XMLID_47_" class="st0" d="M205.5,291.6l6.3,7.5c3.7,4.4,2.1,8.4-1.4,11.5c-3.7,3.3-7.8,3.9-11.3-0.1l-6.3-7.5l3.2-2.8
			l6.4,7.6c1.6,1.9,3.9,1.8,5.7,0.2c1.7-1.5,2.5-3.8,0.5-6.1l-6.2-7.3L205.5,291.6L205.5,291.6z"/>
		<polygon id="XMLID_46_" class="st0" points="238.6,299.9 225.9,302.7 222.1,285.7 234.7,283 235.4,286.1 227.1,287.9 227.9,291.4 
			235.8,289.7 236.5,292.9 228.6,294.5 229.5,298.6 237.9,296.8 		"/>
		<polygon id="XMLID_45_" class="st0" points="263.9,288 256,286.6 255.2,290.3 263.1,291.7 262.5,294.7 254.6,293.3 253.2,300.1 
			248.8,299.3 252.2,282.8 264.5,285 		"/>
		<path class="st0" d="M279.9,305.7l-4.5-3.2l6.1-4.3L279.9,305.7L279.9,305.7z M285.9,296.1l-4.2-3l-16,10.8l3.9,2.7l3.1-2.2
			l6.6,4.6l-0.8,3.8l3.9,2.8L285.9,296.1L285.9,296.1z"/>
	</g>
	<g id="XMLID_3_">
		
			<radialGradient id="XMLID_77_" cx="249.6841" cy="334.7438" r="97.2561" gradientTransform="matrix(1 0 0 -1 0 502)" gradientUnits="userSpaceOnUse">
			<stop  offset="0.7636" style="stop-color:#EAA822"/>
			<stop  offset="1" style="stop-color:#CC7A29"/>
		</radialGradient>
		<circle id="XMLID_42_" class="st1" cx="249.7" cy="167.3" r="97.3"/>
		
			<linearGradient id="XMLID_78_" gradientUnits="userSpaceOnUse" x1="249.6838" y1="286.424" x2="249.6838" y2="384.4422" gradientTransform="matrix(1 0 0 -1 0 502)">
			<stop  offset="0" style="stop-color:#EAA822"/>
			<stop  offset="0.3939" style="stop-color:#F1C062"/>
		</linearGradient>
		<path id="XMLID_41_" class="st2" d="M249.7,71.1c-50.1,0-90.7,42.9-90.7,95.8c0,2.2,0.1,4.3,0.2,6.4
			c18.8,33.7,52.3,56.1,90.5,56.1c38.2,0,71.6-22.4,90.5-56.1c0.1-2.1,0.2-4.3,0.2-6.4C340.4,114,299.8,71.1,249.7,71.1z"/>
		<g id="XMLID_4_">
			<g id="XMLID_5_">
				
					<radialGradient id="XMLID_79_" cx="251.0716" cy="337.5627" r="100.2344" gradientTransform="matrix(1 0 0 -1 0 502)" gradientUnits="userSpaceOnUse">
					<stop  offset="0" style="stop-color:#A21D2E"/>
					<stop  offset="1" style="stop-color:#650B1A"/>
				</radialGradient>
				<path id="XMLID_40_" class="st3" d="M250,70c-17.4,0-33.8,4.6-47.9,12.6c4.4,7.8,13.1,25.5,20.3,52.8
					c10,38.1,26.4,84.5,59.8,116.6c0,0-35.1-59.8-35.1-134.6c0-18.1,1.9-33.9,4.7-47.3C251.2,70,250.6,70,250,70z"/>
				
					<radialGradient id="XMLID_81_" cx="251.0708" cy="337.5627" r="100.2357" gradientTransform="matrix(1 0 0 -1 0 502)" gradientUnits="userSpaceOnUse">
					<stop  offset="0" style="stop-color:#A21D2E"/>
					<stop  offset="1" style="stop-color:#650B1A"/>
				</radialGradient>
				<path id="XMLID_39_" class="st4" d="M266.4,71.4c-1,5.1-3,14.9-6.3,27.6c-5,19.4-1.3,86.5,8,105.5c0,0-4.4-49.2,29.2-122.3
					C287.8,77,277.4,73.2,266.4,71.4z"/>
				
					<radialGradient id="XMLID_82_" cx="251.0717" cy="337.5639" r="100.235" gradientTransform="matrix(1 0 0 -1 0 502)" gradientUnits="userSpaceOnUse">
					<stop  offset="0" style="stop-color:#A21D2E"/>
					<stop  offset="1" style="stop-color:#650B1A"/>
				</radialGradient>
				<path id="XMLID_38_" class="st5" d="M246.3,264.5c-2.2-57.3-16.2-86-16.2-86c2.5,39.2-9.7,70.6-13.8,79.8
					C225.7,261.8,235.7,264,246.3,264.5z"/>
				
					<radialGradient id="XMLID_83_" cx="251.0717" cy="337.5651" r="100.2361" gradientTransform="matrix(1 0 0 -1 0 502)" gradientUnits="userSpaceOnUse">
					<stop  offset="0" style="stop-color:#A21D2E"/>
					<stop  offset="1" style="stop-color:#650B1A"/>
				</radialGradient>
				<path id="XMLID_37_" class="st6" d="M254.6,264.5c9.2-0.5,18.1-2.2,26.4-5.1c-21.6-18.5-34.3-42.8-34.3-42.8
					C252.3,233.4,254.1,256.9,254.6,264.5z"/>
			</g>
			<path id="XMLID_36_" class="st7" d="M226.3,134.4c-5.5-21-12.3-40.8-20.2-53.9c-1.4,0.7-2.7,1.4-4,2.1
				c4.4,7.8,13.1,25.5,20.3,52.8c9.6,36.6,25.1,80.8,55.9,112.6C242.7,197,232.4,157.5,226.3,134.4z"/>
			<path id="XMLID_35_" class="st7" d="M264.8,95c2.7-12.2,3.6-19.6,3.9-23.2c-0.8-0.1-1.5-0.3-2.3-0.4c-1,5.1-3,14.9-6.3,27.6
				c-5,19.4-1.3,86.5,8,105.5c0,0-0.6-7.3,0.5-20.4C257.7,145.3,261.1,111.6,264.8,95z"/>
			<path id="XMLID_34_" class="st7" d="M234.1,189c-2.3-7-4-10.5-4-10.5c2.5,39.2-9.7,70.6-13.8,79.8c0.2,0.1,0.3,0.1,0.5,0.2
				C223.4,248.8,234.6,226.9,234.1,189z"/>
			<path id="XMLID_33_" class="st7" d="M254.6,264.5c1.2-0.1,2.4-0.1,3.6-0.3c-0.7-15.6-3-28.5-4.8-36.7c-4.3-6.5-6.7-11-6.7-11
				C252.3,233.4,254.1,256.9,254.6,264.5z"/>
		</g>
		<g id="XMLID_6_">
			<g id="XMLID_7_">
				<path id="XMLID_32_" class="st0" d="M309.3,253.5c0.1,0.2,0.2,0.4,0.3,0.5c-0.4-0.1-0.8,0-1,0.2c-0.3,0.2-0.5,0.4-0.6,0.8
					c-0.1,0.4-0.1,0.7,0.1,1c0.2,0.3,0.4,0.5,0.8,0.6c0.4,0.1,0.7,0,1-0.1c0.2-0.1,0.3-0.2,0.4-0.3c0.1-0.1,0.1-0.1,0.1-0.2
					c0-0.1,0.1-0.2,0.1-0.3c0.1,0.2,0.2,0.4,0.3,0.6c-0.2,0.3-0.5,0.6-0.8,0.7c-0.5,0.3-1,0.3-1.5,0.2c-0.5-0.1-0.9-0.4-1.1-0.9
					c-0.2-0.4-0.2-0.8-0.1-1.3c0.1-0.6,0.5-1,1-1.3C308.7,253.6,309,253.5,309.3,253.5z"/>
				<path class="st0" d="M308.5,258.2c-1.7-0.2-2.6-1.7-2.3-3.2c0.3-1.5,1.7-2.6,3.3-2.5c1.6,0.2,2.7,1.5,2.5,3.1
					C311.8,257.2,310.2,258.4,308.5,258.2L308.5,258.2z M309.4,253c-1.3-0.1-2.6,0.8-2.8,2.1c-0.3,1.3,0.6,2.6,2,2.7
					c1.4,0.2,2.7-0.8,2.9-2.2C311.8,254.3,310.8,253.1,309.4,253L309.4,253z"/>
			</g>
			<g id="XMLID_8_">
				<path id="XMLID_29_" class="st0" d="M317,252c0.1,0.1,0.2,0.2,0.3,0.4c-0.7,0.5-1.5,1.1-2.2,1.6c-0.1-0.1-0.1-0.2-0.1-0.3
					c0-0.2,0-0.4,0-0.6c0-0.2,0.1-0.5,0.2-0.8c0.2-0.5,0.3-0.9,0.3-1.2c0-0.3,0-0.4-0.1-0.6c-0.1-0.2-0.3-0.2-0.4-0.3
					c-0.2,0-0.4,0-0.5,0.2c-0.2,0.1-0.3,0.3-0.3,0.5c0,0.2,0,0.4,0.1,0.6c-0.1,0.1-0.3,0.2-0.4,0.2c-0.2-0.3-0.2-0.6-0.1-0.9
					c0.1-0.3,0.3-0.5,0.6-0.7c0.3-0.2,0.6-0.3,0.9-0.3c0.3,0,0.5,0.2,0.7,0.4c0.1,0.1,0.2,0.3,0.2,0.4c0,0.2,0,0.3,0,0.6
					c0,0.2-0.1,0.6-0.2,1c-0.1,0.4-0.2,0.6-0.2,0.7c0,0.1,0,0.2,0,0.3C315.9,252.8,316.5,252.4,317,252z"/>
				<path class="st0" d="M316.6,250.5c-0.3-0.4-0.4-0.7-0.5-1c-0.1-0.3-0.1-0.5,0-0.8c0.1-0.2,0.2-0.4,0.4-0.6
					c0.2-0.1,0.3-0.2,0.5-0.2c0.2,0,0.4,0,0.5,0c0.2,0.1,0.4,0.2,0.5,0.3c0.2,0.1,0.4,0.4,0.6,0.7c0.3,0.4,0.5,0.7,0.6,0.9
					c0.1,0.3,0.1,0.5,0,0.8c-0.1,0.2-0.2,0.5-0.5,0.6c-0.3,0.2-0.6,0.3-1,0.2C317.4,251.4,317,251.1,316.6,250.5z M317,250.2
					c0.4,0.5,0.7,0.8,0.9,0.9c0.2,0.1,0.5,0,0.7-0.1c0.2-0.1,0.3-0.3,0.3-0.6c0-0.3-0.2-0.6-0.6-1.1c-0.4-0.5-0.7-0.8-0.9-0.8
					c-0.2-0.1-0.5,0-0.6,0.1c-0.2,0.1-0.3,0.3-0.3,0.5C316.4,249.3,316.6,249.7,317,250.2z"/>
				<path class="st0" d="M319.1,248.6c-0.3-0.4-0.5-0.7-0.6-0.9c-0.1-0.3-0.1-0.5-0.1-0.8c0.1-0.2,0.2-0.4,0.4-0.6
					c0.2-0.1,0.3-0.2,0.5-0.3c0.2,0,0.4,0,0.5,0c0.2,0,0.4,0.1,0.6,0.3c0.2,0.1,0.4,0.3,0.7,0.6c0.3,0.3,0.5,0.6,0.6,0.9
					c0.1,0.3,0.1,0.5,0.1,0.8c-0.1,0.2-0.2,0.5-0.4,0.7c-0.3,0.3-0.6,0.3-1,0.3C319.9,249.5,319.5,249.2,319.1,248.6z M319.5,248.3
					c0.4,0.5,0.7,0.8,1,0.8c0.3,0.1,0.5,0,0.6-0.1c0.2-0.1,0.3-0.4,0.2-0.6c0-0.3-0.2-0.6-0.6-1.1c-0.4-0.5-0.7-0.7-1-0.8
					c-0.2-0.1-0.5,0-0.6,0.1c-0.2,0.1-0.2,0.3-0.2,0.5C318.9,247.4,319.1,247.8,319.5,248.3z"/>
				<path class="st0" d="M321.9,246c-0.2,0.1-0.4,0.1-0.5,0.1c-0.2,0-0.3-0.1-0.4-0.3c-0.2-0.2-0.3-0.5-0.2-0.7
					c0-0.3,0.2-0.5,0.4-0.8c0.3-0.2,0.5-0.3,0.8-0.3c0.3,0,0.5,0.1,0.7,0.3c0.1,0.1,0.2,0.3,0.2,0.4c0,0.2,0,0.3-0.1,0.5
					c0.2-0.1,0.5-0.1,0.7-0.1c0.2,0,0.4,0.1,0.6,0.3c0.2,0.2,0.3,0.5,0.3,0.9c0,0.3-0.2,0.6-0.5,0.9c-0.3,0.3-0.6,0.4-1,0.4
					c-0.3,0-0.6-0.1-0.8-0.4c-0.2-0.2-0.2-0.4-0.3-0.6C321.7,246.4,321.8,246.2,321.9,246z M322.4,246.9c0.1,0.1,0.2,0.2,0.3,0.2
					c0.1,0,0.3,0.1,0.4,0c0.1,0,0.3-0.1,0.4-0.2c0.2-0.2,0.3-0.4,0.3-0.6c0-0.2,0-0.4-0.2-0.6c-0.2-0.2-0.3-0.2-0.6-0.2
					c-0.2,0-0.4,0.1-0.6,0.2c-0.2,0.2-0.3,0.3-0.3,0.5C322.1,246.5,322.2,246.7,322.4,246.9z M321.3,245.4c0.1,0.1,0.3,0.2,0.4,0.2
					c0.2,0,0.3-0.1,0.5-0.2c0.1-0.1,0.2-0.3,0.2-0.4c0-0.2,0-0.3-0.2-0.4c-0.1-0.1-0.3-0.2-0.4-0.2c-0.2,0-0.3,0.1-0.5,0.2
					c-0.1,0.1-0.2,0.3-0.2,0.4C321.2,245.2,321.2,245.3,321.3,245.4z"/>
				<path id="XMLID_21_" class="st0" d="M325.4,240.1c0.1-0.1,0.2-0.3,0.4-0.4c0.5,0.5,1.1,1,1.6,1.5c0.3,0.3,0.5,0.5,0.6,0.7
					c0.1,0.2,0.1,0.5,0.1,0.7c-0.1,0.3-0.2,0.6-0.5,0.8c-0.3,0.3-0.5,0.5-0.8,0.6c-0.3,0.1-0.5,0.1-0.7,0c-0.2-0.1-0.5-0.3-0.8-0.6
					c-0.5-0.5-1-1-1.6-1.6c0.1-0.1,0.2-0.2,0.4-0.4c0.5,0.5,1,1,1.6,1.5c0.2,0.2,0.4,0.4,0.6,0.4c0.2,0.1,0.3,0.1,0.5,0
					c0.2-0.1,0.3-0.2,0.5-0.3c0.3-0.3,0.4-0.6,0.4-0.8c0-0.2-0.2-0.5-0.5-0.8C326.5,241.1,326,240.6,325.4,240.1z"/>
				<path id="XMLID_20_" class="st0" d="M329.2,241.6c-0.9-0.8-1.9-1.7-2.8-2.5c0.6-0.7,1.2-1.4,1.8-2.1c0.1,0.1,0.2,0.2,0.3,0.3
					c-0.5,0.6-1,1.2-1.5,1.8c0.3,0.3,0.6,0.5,0.9,0.8c0.5-0.6,1-1.1,1.4-1.7c0.1,0.1,0.2,0.2,0.3,0.3c-0.5,0.6-1,1.1-1.4,1.7
					c0.3,0.3,0.6,0.6,1,0.9c0.6-0.6,1.1-1.3,1.6-1.9c0.1,0.1,0.2,0.2,0.3,0.3C330.6,240,329.9,240.8,329.2,241.6z"/>
				<path id="XMLID_19_" class="st0" d="M331.7,238.6c-1-0.8-2-1.6-3-2.4c0.6-0.7,1.1-1.4,1.6-2.1c0.1,0.1,0.2,0.2,0.4,0.3
					c-0.4,0.6-0.9,1.1-1.3,1.7c0.3,0.2,0.6,0.5,0.9,0.7c0.4-0.5,0.8-1,1.2-1.5c0.1,0.1,0.2,0.2,0.4,0.3c-0.4,0.5-0.8,1-1.2,1.5
					c0.5,0.4,0.9,0.7,1.4,1.1C331.9,238.4,331.8,238.5,331.7,238.6z"/>
				<path class="st0" d="M333.4,236.5c-0.7-1.2-1.4-2.4-2.2-3.5c0.1-0.2,0.2-0.3,0.3-0.5c1.3,0.3,2.7,0.6,4.1,0.8
					c-0.1,0.2-0.2,0.3-0.4,0.5c-0.4-0.1-0.8-0.2-1.2-0.3c-0.3,0.5-0.6,0.9-1,1.4c0.2,0.3,0.4,0.7,0.7,1
					C333.6,236.2,333.5,236.3,333.4,236.5z M332.8,234.6c0.3-0.4,0.5-0.7,0.8-1.1c-0.4-0.1-0.7-0.2-1.1-0.3
					c-0.3-0.1-0.6-0.2-0.8-0.2c0.2,0.2,0.3,0.4,0.5,0.6C332.4,233.9,332.6,234.3,332.8,234.6z"/>
				<path id="XMLID_16_" class="st0" d="M337.1,231.1c-1-0.6-1.9-1.2-2.9-1.8c-0.2,0.4-0.5,0.7-0.7,1.1c-0.1-0.1-0.3-0.2-0.4-0.2
					c0.6-0.9,1.1-1.8,1.6-2.7c0.1,0.1,0.3,0.2,0.4,0.2c-0.2,0.4-0.4,0.8-0.7,1.1c1,0.6,1.9,1.2,2.9,1.8
					C337.3,230.8,337.2,230.9,337.1,231.1z"/>
				<path id="XMLID_15_" class="st0" d="M338.4,229c-1.1-0.6-2.2-1.3-3.3-1.9c0.1-0.2,0.3-0.5,0.4-0.7c0.9,0.2,1.9,0.3,2.8,0.5
					c0.3,0,0.5,0.1,0.6,0.1c-0.1-0.1-0.2-0.3-0.4-0.5c-0.6-0.7-1.3-1.4-1.9-2.1c0.1-0.2,0.2-0.4,0.3-0.6c1.1,0.6,2.3,1.2,3.4,1.7
					c-0.1,0.2-0.2,0.3-0.2,0.5c-0.9-0.5-1.9-1-2.8-1.5c0.8,0.8,1.5,1.7,2.3,2.5c-0.1,0.1-0.2,0.3-0.2,0.4c-1.1-0.2-2.3-0.4-3.4-0.6
					c0.9,0.5,1.9,1.1,2.8,1.6C338.5,228.7,338.4,228.8,338.4,229z"/>
			</g>
		</g>
	</g>
	<g id="XMLID_9_">
		<polygon id="XMLID_14_" class="st0" points="149.1,345 149.1,335.8 122.5,335.8 122.5,335.8 122.5,380.8 149.1,380.8 149.1,371.6 
			131.6,371.6 131.6,362.9 146,362.9 146,353.7 131.6,353.7 131.6,345 		"/>
		<polygon id="XMLID_13_" class="st0" points="200.4,401.9 200.4,395.2 181.1,395.2 181.1,395.3 181.1,428 200.4,428 200.4,421.2 
			187.7,421.2 187.7,414.9 198.2,414.9 198.2,408.2 187.7,408.2 187.7,401.9 		"/>
		<polygon id="XMLID_12_" class="st0" points="160.6,395.2 154,395.2 154,395.3 154,428 173.3,428 173.3,421.2 160.6,421.2 		"/>
		<polygon id="XMLID_11_" class="st0" points="340.8,401.9 340.8,395.2 321.5,395.2 321.5,395.3 321.5,428 340.8,428 340.8,421.2 
			328.1,421.2 328.1,414.9 338.6,414.9 338.6,408.2 328.1,408.2 328.1,401.9 		"/>
		<path id="XMLID_10_" class="st0" d="M189.2,335.7v26.9c0,5.6-4.6,10.2-10.2,10.2c-5.6,0-10.2-4.6-10.2-10.2v-26.9h-9.2v26.9
			c0,10.7,8.7,19.4,19.4,19.4c10.7,0,19.4-8.7,19.4-19.4v-26.9H189.2z"/>
		<path id="XMLID_50_" class="st0" d="M305.8,395.2v20.2c0,4.2-3.4,7.7-7.7,7.7c-4.2,0-7.7-3.4-7.7-7.7v-20.2h-6.9v20.2
			c0,8.1,6.5,14.6,14.6,14.6c8.1,0,14.6-6.5,14.6-14.6v-20.2H305.8z"/>
		<path class="st0" d="M235.5,380.8h12.3l-16-19.1c5.7-1.8,9.7-6.7,9.7-12.6c0-7.3-6.4-13.3-14.3-13.3h-16.6v45h9.2v-18.4h0.3
			L235.5,380.8z M232.3,350c0,3.1-1.9,7.1-10,7.1h-2.5V345h7.4C230.8,345,232.3,347.8,232.3,350z"/>
		<path class="st0" d="M271.9,334c-12.1,0-22,10.8-22,24c0,13.3,9.8,24,22,24c12.1,0,22-10.8,22-24C293.9,344.7,284,334,271.9,334z
			 M271.9,372.8c-7.1,0-12.8-6.7-12.8-14.8s5.7-14.8,12.8-14.8s12.8,6.7,12.8,14.8S278.9,372.8,271.9,372.8z"/>
		<path id="XMLID_51_" class="st0" d="M320,335.8h-10.2v0l-5.4,0v45h9.2V345h6.4c2.8,0,5.1,2.3,5.1,5.1s-2.3,5.1-5.1,5.1h-3.3v9.2
			h3.3c7.9,0,14.3-6.4,14.3-14.3C334.3,342.2,327.9,335.8,320,335.8z"/>
		<polygon id="XMLID_56_" class="st0" points="368,380.8 377.5,380.8 355,334.8 332.5,380.8 342,380.8 346,372.5 360.6,372.5 
			357.2,365.4 349.5,365.4 355,354.2 		"/>
		<polygon id="XMLID_57_" class="st0" points="233.4,427.6 240.4,427.6 223.9,393.8 207.4,427.6 214.4,427.6 217.3,421.5 228,421.5 
			225.5,416.3 219.9,416.3 223.9,408.1 		"/>
		<path id="XMLID_58_" class="st0" d="M260.3,409.8v6.9h6.5v4.9c-1.4,0.8-3.1,1.3-4.8,1.3c-5.8,0-10.5-5.1-10.5-11.4
			c0-6.3,4.7-11.4,10.5-11.4c4,0,7.4,2.4,9.2,5.9l1.4-9.4c-3-2.2-6.7-3.5-10.6-3.5c-10,0-18.1,8.2-18.1,18.4
			c0,10.2,8.1,18.4,18.1,18.4c4.5,0,8.5-1.6,11.7-4.3h0v-15.8L260.3,409.8L260.3,409.8z"/>
	</g>
</g>
</svg>
