<?xml version="1.0" encoding="UTF-8"?><svg id="Layer_1" xmlns="http://www.w3.org/2000/svg" viewBox="0 0 539.25 411.87"><defs><style>.cls-1{fill:#ff4b44;}</style></defs><path class="cls-1" d="M462.89,364.94h-3.8v4.88h3.8c.32,0,.59-.11.81-.35.21-.25.32-.54.32-.93v-2.3c0-.38-.1-.68-.32-.93-.21-.25-.47-.37-.8-.37M476.24,364.97h-2.68c-.35,0-.62.11-.82.35-.2.25-.3.56-.3.93v8.08c0,.37.09.67.29.92.21.25.48.38.82.39h2.68c.33,0,.59-.13.8-.38.21-.24.32-.56.33-.92v-8.08c.01-.38-.09-.68-.3-.93-.21-.25-.47-.37-.8-.37M489.97,364.99h-3.65v4.51h3.65c.32,0,.59-.11.8-.34.2-.24.3-.56.3-.92v-1.94c0-.38-.09-.68-.29-.93-.21-.25-.47-.37-.8-.37M317.07,384.14l20.99-75.93h22.29c4.15,0,6.74,1.94,7.9,6.1l19.31,69.84c.91,3.1,1.03,5.19,1.03,9.2v5.58h-17.24l-6.87-27.6-27.86,14.25-3.37,13.35h-17.24v-5.58c0-4.01.13-6.1,1.03-9.2M363.58,367.81l-10.23-41.47h-2.07l-10.23,41.47h22.55-.01ZM242.06,370.12v-33.11c0-19.31,10.5-29.81,29.81-29.81h8.51c19.04,0,29.81,9.72,29.81,26.96h-19.43v-3.63c0-3.37-1.82-5.19-5.19-5.19h-18.88c-3.37,0-5.19,1.82-5.19,5.19v46.07c0,3.37,1.82,5.19,5.19,5.19h18.88c3.37,0,5.19-1.82,5.19-5.19v-11.41h-13.48v-18.13h21.64l7.65,9.45c2.59,3.24,3.63,6.22,3.63,10.36v3.24c0,19.31-10.5,29.81-29.81,29.81h-8.51c-19.31,0-29.81-10.5-29.81-29.81M209.41,308.2h19.43v90.7h-19.43v-90.7ZM144.62,379.09v-70.87h19.43v72.56h34.34v18.13h-42.5l-7.65-9.45c-2.59-3.37-3.63-6.47-3.63-10.36M64.28,384.14l20.99-75.93h22.29c4.15,0,6.74,1.94,7.9,6.1l19.31,69.84c.91,3.1,1.03,5.19,1.03,9.2v5.58h-17.24l-6.87-27.6-27.86,14.25-3.37,13.35h-17.24v-5.58c0-4.01.13-6.1,1.03-9.2M110.8,367.81l-10.23-41.47h-2.07l-10.23,41.47h22.55-.01ZM0,379.09v-70.87h19.43v72.56h34.34v18.13H11.28l-7.65-9.45c-2.59-3.37-3.63-6.47-3.63-10.36"/><path class="cls-1" d="M131.27,107.19L205.45,0h71.77l-92.35,131.42h59.96l-93.26,47.54-18.78-23.93c-6.66-8.78-9.69-15.45-9.69-24.53,0-8.18,3.03-16.05,8.18-23.32M192.12,218.01c0-7.57,3.03-15.75,8.48-23.62L337.17,0h79.04l-153.22,218.01h69.04l-107.19,54.5-23.02-29.37c-6.36-8.18-9.69-16.35-9.69-25.14M481.01,295.22c-32.22-.05-58.37,26.03-58.42,58.24-.05,32.22,26.03,58.38,58.24,58.42,32.22.05,58.37-26.03,58.42-58.24.05-32.22-26.03-58.36-58.24-58.42M459.17,322.19l29.98.05-4.61,7.27-29.97-.03,4.59-7.28h0ZM453.01,374.79c0,.93-.33,1.73-.97,2.37-.66.66-1.45.98-2.36.98h-3.95c-.93,0-1.73-.33-2.35-.95-.62-.62-.95-1.4-.93-2.36v-1.56h2.44l.35,1.45c.16.59.57.91,1.25.91h2.68c.33,0,.61-.11.82-.37.2-.24.3-.56.3-.92v-1.72c0-.85-.37-1.27-1.11-1.27h-3.36c-.92,0-1.72-.33-2.39-.98-.66-.65-.98-1.44-.96-2.37v-2.27c0-.91.33-1.69.97-2.35.67-.66,1.46-.97,2.39-.97h3.9c.92,0,1.7.33,2.35.95.63.63.95,1.41.95,2.35v1.41h-2.41l-.37-1.29c-.19-.61-.61-.91-1.24-.91h-2.64c-.34,0-.62.11-.82.37-.21.25-.32.56-.32.93v1.33c0,.82.37,1.24,1.12,1.24h3.36c.91,0,1.69.34,2.35,1.01.66.67.97,1.45.97,2.36v2.66l-.03-.03h0ZM466.78,369.04c0,.92-.33,1.72-.98,2.36-.67.66-1.46.98-2.39.98h-4.34v5.78h-2.79l.03-15.76h7.12c.92.01,1.72.34,2.39,1,.64.64.97,1.43.97,2.33v3.31ZM480.13,374.81c0,.96-.32,1.75-1,2.4-.66.66-1.44.98-2.37.98h-3.76c-.93,0-1.73-.34-2.39-1-.66-.64-.98-1.44-.98-2.4v-9.06c.01-.91.35-1.69,1-2.33.64-.64,1.45-.98,2.39-.97h3.76c.93,0,1.72.33,2.37.98.67.63.98,1.44.98,2.35v9.05ZM480.85,358.68l-37.97-.05,9.26-14.58h-6.78l4.62-7.29,28.24.04-4.63,7.28-12.66-.03-4.69,7.29,20.39.03,18.68-29.4,23.14,36.75h-8.76l-4.59-7.31-13.72-.03,4.62-7.29h4.49l-5.21-8.29-14.44,22.85v.03ZM491.51,378.21l-2.56-6.17h-2.64v6.16h-2.79l.03-15.76h6.97c.93,0,1.73.34,2.37,1,.64.64.98,1.44.97,2.33v2.75c0,.71-.2,1.36-.59,1.94-.42.57-.93.97-1.54,1.24l2.75,6.51h-2.97ZM506.44,365.02h-4.04l-.03,13.2h-2.79l.03-13.21h-4v-2.55h10.84v2.56h-.01ZM519.06,374.89c0,.93-.33,1.73-.97,2.37s-1.45.98-2.39.98h-3.94c-.95,0-1.72-.33-2.36-.95-.63-.63-.95-1.4-.95-2.36v-1.56h2.44l.37,1.45c.16.59.58.91,1.25.91h2.68c.34,0,.62-.11.82-.37.2-.24.3-.56.3-.92v-1.73c0-.85-.37-1.27-1.11-1.27h-3.36c-.92,0-1.73-.33-2.36-.98-.64-.66-.98-1.45-.98-2.37v-2.27c0-.91.34-1.69,1-2.35.65-.68,1.44-1,2.37-.97h3.89c.93,0,1.7.33,2.35.95.63.63.95,1.4.95,2.35v1.41h-2.42l-.37-1.29c-.19-.61-.61-.91-1.22-.91h-2.64c-.34,0-.62.11-.82.37-.2.25-.3.56-.3.93v1.33c0,.82.38,1.24,1.12,1.24h3.36c.92,0,1.7.34,2.35,1.01.68.67,1,1.45,1,2.36v2.66h-.04ZM520.77,363.28h-.59v1.26h-.3v-1.26h-.59v-.26h1.49v.26ZM522.54,364.54v-1.11s-.04.11-.08.16l-.48.74h-.05l-.49-.76s-.06-.1-.09-.15c0,.06.03.11.03.16v.93h-.25v-1.53h.27l.59.92.61-.92h.23v1.53h-.28,0Z"/></svg>